<svg width="51" height="38" viewBox="0 0 51 38" fill="none" xmlns="http://www.w3.org/2000/svg">
<g id="(2.1)_mdi:cart">
<path id="Vector" d="M36.125 28.4998C33.7663 28.4998 31.875 29.909 31.875 31.6665C31.875 32.5064 32.3228 33.3118 33.1198 33.9057C33.9168 34.4995 34.9978 34.8332 36.125 34.8332C37.2522 34.8332 38.3332 34.4995 39.1302 33.9057C39.9272 33.3118 40.375 32.5064 40.375 31.6665C40.375 30.8267 39.9272 30.0212 39.1302 29.4273C38.3332 28.8335 37.2522 28.4998 36.125 28.4998ZM2.125 3.1665V6.33317H6.375L14.025 18.3507L11.135 22.2298C10.8162 22.6732 10.625 23.1957 10.625 23.7498C10.625 24.5897 11.0728 25.3951 11.8698 25.989C12.6668 26.5829 13.7478 26.9165 14.875 26.9165H40.375V23.7498H15.7675C15.6266 23.7498 15.4915 23.7081 15.3918 23.6339C15.2922 23.5597 15.2362 23.459 15.2362 23.354C15.2362 23.2748 15.2575 23.2115 15.3 23.164L17.2125 20.5832H33.0438C34.6375 20.5832 36.04 19.9182 36.7625 18.9523L44.37 8.70817C44.5187 8.45484 44.625 8.18567 44.625 7.9165C44.625 7.49658 44.4011 7.09385 44.0026 6.79692C43.6041 6.49999 43.0636 6.33317 42.5 6.33317H11.0712L9.07375 3.1665M14.875 28.4998C12.5162 28.4998 10.625 29.909 10.625 31.6665C10.625 32.5064 11.0728 33.3118 11.8698 33.9057C12.6668 34.4995 13.7478 34.8332 14.875 34.8332C16.0022 34.8332 17.0832 34.4995 17.8802 33.9057C18.6772 33.3118 19.125 32.5064 19.125 31.6665C19.125 30.8267 18.6772 30.0212 17.8802 29.4273C17.0832 28.8335 16.0022 28.4998 14.875 28.4998Z" fill="white"/>
</g>
</svg>
