<svg width="54" height="43" viewBox="0 0 54 43" fill="none" xmlns="http://www.w3.org/2000/svg">
<g id="fluent:notepad-person-16-filled">
<path id="Vector" d="M16.875 2.6875C17.3226 2.6875 17.7518 2.82907 18.0682 3.08108C18.3847 3.33308 18.5625 3.67487 18.5625 4.03125V5.375H25.3125V4.03125C25.3125 3.67487 25.4903 3.33308 25.8068 3.08108C26.1232 2.82907 26.5524 2.6875 27 2.6875C27.4476 2.6875 27.8768 2.82907 28.1932 3.08108C28.5097 3.33308 28.6875 3.67487 28.6875 4.03125V5.375H35.4375V4.03125C35.4375 3.67487 35.6153 3.33308 35.9318 3.08108C36.2482 2.82907 36.6774 2.6875 37.125 2.6875C37.5726 2.6875 38.0018 2.82907 38.3182 3.08108C38.6347 3.33308 38.8125 3.67487 38.8125 4.03125V5.375C40.1552 5.375 41.4428 5.79972 42.3922 6.55573C43.3416 7.31173 43.875 8.3371 43.875 9.40625V14.5152C42.3364 13.8068 40.5898 13.435 38.8125 13.4375C37.5098 13.4375 36.261 13.6337 35.1169 13.9911C34.9601 13.8194 34.7546 13.6798 34.517 13.5835C34.2794 13.4873 34.0166 13.4373 33.75 13.4375H20.25C19.8024 13.4375 19.3732 13.5791 19.0568 13.8311C18.7403 14.0831 18.5625 14.4249 18.5625 14.7812C18.5625 15.1376 18.7403 15.4794 19.0568 15.7314C19.3732 15.9834 19.8024 16.125 20.25 16.125H31.266C29.6025 17.6017 28.6841 19.5163 28.6875 21.5H20.25C19.8024 21.5 19.3732 21.6416 19.0568 21.8936C18.7403 22.1456 18.5625 22.4874 18.5625 22.8438C18.5625 23.2001 18.7403 23.5419 19.0568 23.7939C19.3732 24.0459 19.8024 24.1875 20.25 24.1875H29.2612C29.7169 25.2087 30.4189 26.1332 31.3166 26.918C30.8543 26.9718 30.4155 27.0766 30.0071 27.2217C26.4364 27.7592 23.625 30.1968 23.625 33.2605C23.625 35.7814 24.9008 38.0872 27 39.7858V40.3125H15.1875C13.8448 40.3125 12.5572 39.8878 11.6078 39.1318C10.6584 38.3758 10.125 37.3504 10.125 36.2812V9.40625C10.125 8.3371 10.6584 7.31173 11.6078 6.55573C12.5572 5.79972 13.8448 5.375 15.1875 5.375V4.03125C15.1875 3.67487 15.3653 3.33308 15.6818 3.08108C15.9982 2.82907 16.4274 2.6875 16.875 2.6875ZM18.5625 30.9062C18.5625 31.2626 18.7403 31.6044 19.0568 31.8564C19.3732 32.1084 19.8024 32.25 20.25 32.25H21.9375C22.3851 32.25 22.8143 32.1084 23.1307 31.8564C23.4472 31.6044 23.625 31.2626 23.625 30.9062C23.625 30.5499 23.4472 30.2081 23.1307 29.9561C22.8143 29.7041 22.3851 29.5625 21.9375 29.5625H20.25C19.8024 29.5625 19.3732 29.7041 19.0568 29.9561C18.7403 30.2081 18.5625 30.5499 18.5625 30.9062ZM31.482 29.799C31.347 29.799 31.212 29.8044 31.0804 29.8124C28.7921 29.971 27 31.4518 27 33.2605C27.0047 34.4105 27.3833 35.54 28.0989 36.539C28.8146 37.5379 29.8429 38.3722 31.0837 38.9607C31.8465 39.3316 32.697 39.6138 33.6082 39.7911L33.8884 39.8449C37.1216 40.4684 40.5034 40.4684 43.7366 39.8449L44.0168 39.7911C47.898 39.0413 50.625 36.3484 50.625 33.2605C50.625 31.3497 48.6169 29.799 46.143 29.799H31.482ZM38.8125 16.125C39.6993 16.1239 40.5776 16.2622 41.3972 16.532C42.2167 16.8017 42.9614 17.1976 43.5884 17.6969C44.2155 18.1963 44.7127 18.7892 45.0514 19.4418C45.3901 20.0944 45.5638 20.7938 45.5625 21.5C45.5625 22.8626 44.9246 24.1069 43.875 25.0556C42.9681 25.8744 41.7695 26.4539 40.4388 26.717C39.1081 26.98 37.7084 26.9142 36.4258 26.5281C35.1433 26.1421 34.0388 25.4542 33.2593 24.556C32.4799 23.6577 32.0624 22.5918 32.0625 21.5C32.0625 20.0745 32.7737 18.7073 34.0395 17.6993C35.3054 16.6913 37.0223 16.125 38.8125 16.125Z" fill="white"/>
</g>
</svg>
